<svg viewBox="0 0 1600 900" xmlns="http://www.w3.org/2000/svg">
  <defs>
    <radialGradient id="g1" cx="20%" cy="25%" r="75%">
      <stop offset="0%" stop-color="#1a1d0c"/>
      <stop offset="100%" stop-color="#0a0a08"/>
    </radialGradient>
    <linearGradient id="fade1" x1="0" y1="0" x2="0" y2="1">
      <stop offset="0%" stop-color="#d9ff1f" stop-opacity="0.5"/>
      <stop offset="100%" stop-color="#d9ff1f" stop-opacity="0"/>
    </linearGradient>
  </defs>
  <rect width="1600" height="900" fill="url(#g1)"/>
  <g fill="none" stroke="#d9ff1f" stroke-width="2" opacity="0.5">
    <ellipse cx="220" cy="700" rx="620" ry="220"/>
    <ellipse cx="220" cy="700" rx="480" ry="170"/>
    <ellipse cx="220" cy="700" rx="340" ry="120"/>
  </g>
  <g fill="none" stroke="#d9ff1f" stroke-width="1.5" opacity="0.3">
    <path d="M -50 260 Q 500 120 1000 260 T 1700 220"/>
    <path d="M -50 340 Q 550 200 1050 330 T 1700 300"/>
  </g>
  <g fill="#d9ff1f" opacity="0.6">
    <circle cx="1180" cy="190" r="7"/>
    <circle cx="1320" cy="260" r="4"/>
    <circle cx="1400" cy="150" r="3"/>
    <circle cx="1050" cy="120" r="3"/>
  </g>
  <g stroke="#d9ff1f" stroke-width="1" opacity="0.25">
    <line x1="900" y1="0" x2="1600" y2="500"/>
    <line x1="1050" y1="0" x2="1600" y2="380"/>
    <line x1="1200" y1="0" x2="1600" y2="260"/>
  </g>
  <rect width="1600" height="260" fill="url(#fade1)" opacity="0.3"/>
</svg>
